<?xml version="1.0" standalone="no"?>
<!DOCTYPE svg PUBLIC "-//W3C//DTD SVG 20010904//EN"
 "http://www.w3.org/TR/2001/REC-SVG-20010904/DTD/svg10.dtd">
<svg version="1.0" xmlns="http://www.w3.org/2000/svg"
 width="512.000000pt" height="512.000000pt" viewBox="0 0 512.000000 512.000000"
 preserveAspectRatio="xMidYMid meet">
<metadata>
Created by potrace 1.11, written by Peter Selinger 2001-2013
</metadata>
<g transform="translate(0.000000,512.000000) scale(0.100000,-0.100000)"
fill="#000000" stroke="none">
<path d="M722 4180 c-49 -11 -122 -41 -122 -48 0 -16 1868 -1871 1900 -1888
48 -25 163 -25 208 -1 19 10 448 432 953 937 l920 919 -43 25 c-24 14 -64 33
-88 43 -43 17 -145 18 -1870 19 -1004 1 -1840 -2 -1858 -6z"/>
<path d="M412 3958 c-5 -7 -21 -38 -34 -68 l-23 -55 -2 -1250 c-2 -1019 0
-1259 11 -1300 17 -65 50 -130 94 -183 l35 -44 708 709 c390 389 709 711 709
714 0 6 -1340 1350 -1452 1457 -28 26 -37 30 -46 20z"/>
<path d="M4013 3202 c-392 -393 -713 -717 -713 -720 0 -4 308 -315 685 -692
552 -552 687 -682 696 -670 32 48 69 134 79 185 12 65 11 2492 -2 2530 -3 11
-12 34 -20 51 l-13 30 -712 -714z"/>
<path d="M1391 1628 c-606 -607 -680 -684 -659 -689 13 -4 838 -7 1833 -8
1675 -1 1814 0 1863 16 l53 17 -673 673 c-370 370 -676 673 -681 673 -4 0 -62
-53 -128 -119 -65 -65 -141 -130 -167 -144 -100 -54 -241 -72 -348 -43 -90 24
-153 67 -277 189 -66 64 -123 117 -127 117 -3 0 -313 -307 -689 -682z"/>
</g>
</svg>
